<?xml version="1.0" standalone="no"?>
<!DOCTYPE svg PUBLIC "-//W3C//DTD SVG 20010904//EN"
 "http://www.w3.org/TR/2001/REC-SVG-20010904/DTD/svg10.dtd">
<svg version="1.0" xmlns="http://www.w3.org/2000/svg"
 width="500.000000pt" height="500.000000pt" viewBox="0 0 500.000000 500.000000"
 preserveAspectRatio="xMidYMid meet">
<metadata>
Created by potrace 1.11, written by Peter Selinger 2001-2013
</metadata>
<g transform="translate(0.000000,500.000000) scale(0.100000,-0.100000)"
fill="#000000" stroke="none">
<path d="M2370 3844 c-110 -14 -228 -43 -321 -78 -67 -25 -160 -67 -169 -76
-3 -3 -57 -40 -120 -82 -63 -42 -131 -92 -150 -110 -52 -49 -150 -160 -150
-170 0 -5 -15 -32 -33 -61 -105 -165 -155 -288 -188 -465 -27 -145 -29 -358
-4 -492 24 -130 88 -309 141 -393 17 -29 51 -83 74 -121 68 -110 286 -318 359
-341 11 -3 46 -22 78 -41 102 -61 272 -119 443 -149 87 -16 364 -17 460 -3 87
13 278 62 327 83 135 59 277 134 330 174 52 38 63 51 63 76 1 17 2 238 3 492
l2 463 -55 1 c-109 2 -200 0 -208 -4 -4 -3 -7 -197 -6 -432 l0 -427 -42 -29
c-23 -16 -45 -29 -49 -29 -3 0 -18 -9 -33 -20 -35 -26 -177 -77 -264 -95 -169
-36 -397 -38 -528 -5 -251 63 -375 132 -545 304 -149 150 -212 258 -272 466
-19 68 -25 115 -28 230 -5 161 8 262 51 389 24 71 88 210 103 221 3 3 26 32
51 65 55 75 189 205 257 251 64 43 190 103 229 110 16 3 53 12 82 20 143 42
372 54 516 28 110 -19 232 -51 289 -75 59 -25 183 -108 245 -165 l47 -42 83
85 c45 46 82 88 82 92 0 26 -185 161 -309 224 -132 68 -244 101 -444 133 -69
11 -307 10 -397 -2z"/>
</g>
</svg>
